<?xml version="1.0" encoding="UTF-8" standalone="no"?>
<!DOCTYPE svg PUBLIC "-//W3C//DTD SVG 1.1//EN"
 "http://www.w3.org/Graphics/SVG/1.1/DTD/svg11.dtd">
<!-- Generated by graphviz version 12.2.1 (20241206.2353)
 -->
<!-- Title: classes_onion_config Pages: 1 -->
<svg width="2664pt" height="375pt"
 viewBox="0.00 0.00 2664.38 374.50" xmlns="http://www.w3.org/2000/svg" xmlns:xlink="http://www.w3.org/1999/xlink">
<g id="graph0" class="graph" transform="scale(1 1) rotate(0) translate(4 370.5)">
<title>classes_onion_config</title>
<polygon fill="white" stroke="none" points="-4,4 -4,-370.5 2660.38,-370.5 2660.38,4 -4,4"/>
<!-- onion_config._schemas.BaseConfig -->
<g id="node1" class="node">
<title>onion_config._schemas.BaseConfig</title>
<polygon fill="none" stroke="black" points="0,-17 0,-90.5 1572.25,-90.5 1572.25,-17 0,-17"/>
<text text-anchor="start" x="754.25" y="-73.2" font-family="Times,serif" font-size="14.00">BaseConfig</text>
<polyline fill="none" stroke="black" points="0,-66 1572.25,-66"/>
<text text-anchor="start" x="690.5" y="-48.7" font-family="Times,serif" font-size="14.00">model_config : SettingsConfigDict</text>
<polyline fill="none" stroke="black" points="0,-41.5 1572.25,-41.5"/>
<text text-anchor="start" x="8" y="-24.2" font-family="Times,serif" font-size="14.00">settings_customise_sources(settings_cls: Type[BaseSettings], init_settings: PydanticBaseSettingsSource, env_settings: PydanticBaseSettingsSource, dotenv_settings: PydanticBaseSettingsSource, file_secret_settings: PydanticBaseSettingsSource): Tuple[PydanticBaseSettingsSource, ...]</text>
</g>
<!-- onion_config._base.ConfigLoader -->
<g id="node3" class="node">
<title>onion_config._base.ConfigLoader</title>
<polygon fill="none" stroke="black" points="1053.5,-160.5 1053.5,-366 1362.75,-366 1362.75,-160.5 1053.5,-160.5"/>
<text text-anchor="start" x="1170.25" y="-348.7" font-family="Times,serif" font-size="14.00">ConfigLoader</text>
<polyline fill="none" stroke="black" points="1053.5,-341.5 1362.75,-341.5"/>
<text text-anchor="start" x="1166.88" y="-324.2" font-family="Times,serif" font-size="14.00">config</text>
<text text-anchor="start" x="1166.88" y="-307.7" font-family="Times,serif" font-size="14.00">config_data</text>
<text text-anchor="start" x="1166.88" y="-291.2" font-family="Times,serif" font-size="14.00">config_schema</text>
<text text-anchor="start" x="1166.88" y="-274.7" font-family="Times,serif" font-size="14.00">configs_dirs</text>
<text text-anchor="start" x="1166.88" y="-258.2" font-family="Times,serif" font-size="14.00">env_file_paths</text>
<text text-anchor="start" x="1166.88" y="-241.7" font-family="Times,serif" font-size="14.00">extra_dir</text>
<text text-anchor="start" x="1166.88" y="-225.2" font-family="Times,serif" font-size="14.00">pre_load_hook</text>
<text text-anchor="start" x="1166.88" y="-208.7" font-family="Times,serif" font-size="14.00">required_envs</text>
<text text-anchor="start" x="1166.88" y="-192.2" font-family="Times,serif" font-size="14.00">warn_mode</text>
<polyline fill="none" stroke="black" points="1053.5,-185 1362.75,-185"/>
<text text-anchor="start" x="1061.5" y="-167.7" font-family="Times,serif" font-size="14.00">load(): Union[BaseConfig, BaseSettings, BaseModel]</text>
</g>
<!-- onion_config._schemas.BaseConfig&#45;&gt;onion_config._base.ConfigLoader -->
<g id="edge2" class="edge">
<title>onion_config._schemas.BaseConfig&#45;&gt;onion_config._base.ConfigLoader</title>
<path fill="none" stroke="black" d="M859.63,-90.89C909.87,-115.6 978.54,-149.36 1041.64,-180.39"/>
<polygon fill="none" stroke="black" points="1041.77,-180.45 1048.92,-179.51 1052.54,-185.75 1045.39,-186.69 1041.77,-180.45"/>
<text text-anchor="middle" x="1007.33" y="-128.7" font-family="Times,serif" font-size="14.00" fill="green">__config_schema</text>
</g>
<!-- onion_config._schemas.BaseConfig.Config -->
<g id="node2" class="node">
<title>onion_config._schemas.BaseConfig.Config</title>
<polygon fill="none" stroke="black" points="1687.88,-0.5 1687.88,-107 2656.38,-107 2656.38,-0.5 1687.88,-0.5"/>
<text text-anchor="start" x="2153.38" y="-89.7" font-family="Times,serif" font-size="14.00">Config</text>
<polyline fill="none" stroke="black" points="1687.88,-82.5 2656.38,-82.5"/>
<text text-anchor="start" x="2088.88" y="-65.2" font-family="Times,serif" font-size="14.00">arbitrary_types_allowed : bool</text>
<text text-anchor="start" x="2088.88" y="-48.7" font-family="Times,serif" font-size="14.00">extra : str</text>
<text text-anchor="start" x="2088.88" y="-32.2" font-family="Times,serif" font-size="14.00">frozen : bool</text>
<polyline fill="none" stroke="black" points="1687.88,-25 2656.38,-25"/>
<text text-anchor="start" x="1695.88" y="-7.7" font-family="Times,serif" font-size="14.00">customise_sources(init_settings: SettingsSourceCallable, env_settings: SettingsSourceCallable, file_secret_settings: SettingsSourceCallable): tuple[SettingsSourceCallable, ...]</text>
</g>
<!-- onion_config._consts.WarnEnum -->
<g id="node4" class="node">
<title>onion_config._consts.WarnEnum</title>
<polygon fill="none" stroke="black" points="1590.62,-17 1590.62,-90.5 1669.62,-90.5 1669.62,-17 1590.62,-17"/>
<text text-anchor="start" x="1598.62" y="-73.2" font-family="Times,serif" font-size="14.00">WarnEnum</text>
<polyline fill="none" stroke="black" points="1590.62,-66 1669.62,-66"/>
<text text-anchor="start" x="1615.12" y="-48.7" font-family="Times,serif" font-size="14.00">name</text>
<polyline fill="none" stroke="black" points="1590.62,-41.5 1669.62,-41.5"/>
<text text-anchor="start" x="1628.25" y="-24.2" font-family="Times,serif" font-size="14.00"> </text>
</g>
<!-- onion_config._consts.WarnEnum&#45;&gt;onion_config._base.ConfigLoader -->
<g id="edge1" class="edge">
<title>onion_config._consts.WarnEnum&#45;&gt;onion_config._base.ConfigLoader</title>
<path fill="none" stroke="black" d="M1600.68,-90.73C1594.63,-96.83 1588,-102.72 1581.12,-107.5 1518.82,-150.84 1442.51,-185.19 1375.19,-210.42"/>
<polygon fill="none" stroke="black" points="1375.26,-210.39 1371.02,-216.22 1364.01,-214.55 1368.25,-208.72 1375.26,-210.39"/>
<text text-anchor="middle" x="1576.67" y="-128.7" font-family="Times,serif" font-size="14.00" fill="green">warn_mode</text>
</g>
</g>
</svg>
