<?xml version="1.0" encoding="UTF-8" standalone="no"?>
<!DOCTYPE svg PUBLIC "-//W3C//DTD SVG 1.1//EN"
 "http://www.w3.org/Graphics/SVG/1.1/DTD/svg11.dtd">
<!-- Generated by graphviz version 12.2.1 (20241206.2353)
 -->
<!-- Title: G Pages: 1 -->
<svg width="1128pt" height="526pt"
 viewBox="0.00 0.00 1128.00 526.25" xmlns="http://www.w3.org/2000/svg" xmlns:xlink="http://www.w3.org/1999/xlink">
<g id="graph0" class="graph" transform="scale(1 1) rotate(0) translate(4 522.25)">
<title>G</title>
<polygon fill="white" stroke="none" points="-4,4 -4,-522.25 1124,-522.25 1124,4 -4,4"/>
<g id="clust2" class="cluster">
<title>cluster_a4d39457</title>
<polygon fill="none" stroke="black" stroke-dasharray="1,5" points="71.5,-122.25 71.5,-510.25 969.25,-510.25 969.25,-122.25 71.5,-122.25"/>
<text text-anchor="middle" x="520.38" y="-492.95" font-family="Times,serif" font-size="14.00">File: _base</text>
</g>
<g id="clust3" class="cluster">
<title>cluster_639269be</title>
<polygon fill="none" stroke="black" stroke-dasharray="1,5" points="79.5,-130.25 79.5,-477.25 961.25,-477.25 961.25,-130.25 79.5,-130.25"/>
<text text-anchor="middle" x="520.38" y="-459.95" font-family="Times,serif" font-size="14.00">Class: ConfigLoader</text>
</g>
<g id="clust4" class="cluster">
<title>cluster_80105194</title>
<polygon fill="none" stroke="black" stroke-dasharray="1,5" points="981.25,-184.25 981.25,-279.25 1110,-279.25 1110,-184.25 981.25,-184.25"/>
<text text-anchor="middle" x="1045.62" y="-261.95" font-family="Times,serif" font-size="14.00">File: _utils</text>
</g>
<!-- Legend -->
<g id="node1" class="node">
<title>Legend</title>
<polygon fill="none" stroke="black" points="1,-95 1,-113.5 265,-113.5 265,-95 1,-95"/>
<text text-anchor="start" x="80.88" y="-99.2" font-family="Times,serif" font-size="14.00">Code2flow Legend</text>
<polygon fill="none" stroke="black" points="1,-1 1,-95 265,-95 265,-1 1,-1"/>
<polygon fill="none" stroke="black" points="3,-70.5 3,-93 213,-93 213,-70.5 3,-70.5"/>
<text text-anchor="start" x="62.25" y="-76.7" font-family="Times,serif" font-size="14.00">Regular function</text>
<polygon fill="#cccccc" stroke="none" points="213,-70.5 213,-93 263,-93 263,-70.5 213,-70.5"/>
<polygon fill="none" stroke="black" points="213,-70.5 213,-93 263,-93 263,-70.5 213,-70.5"/>
<polygon fill="none" stroke="black" points="3,-48 3,-70.5 213,-70.5 213,-48 3,-48"/>
<text text-anchor="start" x="14.25" y="-54.2" font-family="Times,serif" font-size="14.00">Trunk function (nothing calls this)</text>
<polygon fill="#966f33" stroke="none" points="213,-48 213,-70.5 263,-70.5 263,-48 213,-48"/>
<polygon fill="none" stroke="black" points="213,-48 213,-70.5 263,-70.5 263,-48 213,-48"/>
<polygon fill="none" stroke="black" points="3,-25.5 3,-48 213,-48 213,-25.5 3,-25.5"/>
<text text-anchor="start" x="6" y="-31.7" font-family="Times,serif" font-size="14.00">Leaf function (this calls nothing else)</text>
<polygon fill="#6db33f" stroke="none" points="213,-25.5 213,-48 263,-48 263,-25.5 213,-25.5"/>
<polygon fill="none" stroke="black" points="213,-25.5 213,-48 263,-48 263,-25.5 213,-25.5"/>
<polygon fill="none" stroke="black" points="3,-3 3,-25.5 213,-25.5 213,-3 3,-3"/>
<text text-anchor="start" x="72.38" y="-9.2" font-family="Times,serif" font-size="14.00">Function call</text>
<polygon fill="none" stroke="black" points="213,-3 213,-25.5 263,-25.5 263,-3 213,-3"/>
<text text-anchor="start" x="230.88" y="-9.2" font-family="Times,serif" font-size="14.00">→</text>
<polygon fill="none" stroke="black" points="2,-2 2,-94 264,-94 264,-2 2,-2"/>
<polygon fill="none" stroke="black" points="0,0 0,-114.5 266,-114.5 266,0 0,0"/>
</g>
<!-- node_a6cd864b -->
<g id="node2" class="node">
<title>node_a6cd864b</title>
<path fill="#966f33" stroke="black" d="M166.5,-309.25C166.5,-309.25 99.5,-309.25 99.5,-309.25 93.5,-309.25 87.5,-303.25 87.5,-297.25 87.5,-297.25 87.5,-285.25 87.5,-285.25 87.5,-279.25 93.5,-273.25 99.5,-273.25 99.5,-273.25 166.5,-273.25 166.5,-273.25 172.5,-273.25 178.5,-279.25 178.5,-285.25 178.5,-285.25 178.5,-297.25 178.5,-297.25 178.5,-303.25 172.5,-309.25 166.5,-309.25"/>
<text text-anchor="middle" x="133" y="-286.2" font-family="Times,serif" font-size="14.00">76: __init__()</text>
</g>
<!-- node_a17c4c2e -->
<g id="node12" class="node">
<title>node_a17c4c2e</title>
<path fill="#cccccc" stroke="black" d="M366,-309.25C366,-309.25 314,-309.25 314,-309.25 308,-309.25 302,-303.25 302,-297.25 302,-297.25 302,-285.25 302,-285.25 302,-279.25 308,-273.25 314,-273.25 314,-273.25 366,-273.25 366,-273.25 372,-273.25 378,-279.25 378,-285.25 378,-285.25 378,-297.25 378,-297.25 378,-303.25 372,-309.25 366,-309.25"/>
<text text-anchor="middle" x="340" y="-286.2" font-family="Times,serif" font-size="14.00">119: load()</text>
</g>
<!-- node_a6cd864b&#45;&gt;node_a17c4c2e -->
<g id="edge1" class="edge">
<title>node_a6cd864b&#45;&gt;node_a17c4c2e</title>
<path fill="none" stroke="#009e73" stroke-width="2" d="M178.94,-291.25C178.94,-291.25 288.79,-291.25 288.79,-291.25"/>
<polygon fill="#009e73" stroke="#009e73" stroke-width="2" points="288.79,-294.75 298.79,-291.25 288.79,-287.75 288.79,-294.75"/>
</g>
<!-- node_3b2aa613 -->
<g id="node3" class="node">
<title>node_3b2aa613</title>
<path fill="#6db33f" stroke="black" d="M576.25,-174.25C576.25,-174.25 426,-174.25 426,-174.25 420,-174.25 414,-168.25 414,-162.25 414,-162.25 414,-150.25 414,-150.25 414,-144.25 420,-138.25 426,-138.25 426,-138.25 576.25,-138.25 576.25,-138.25 582.25,-138.25 588.25,-144.25 588.25,-150.25 588.25,-150.25 588.25,-162.25 588.25,-162.25 588.25,-168.25 582.25,-174.25 576.25,-174.25"/>
<text text-anchor="middle" x="501.12" y="-151.2" font-family="Times,serif" font-size="14.00">205: _check_required_envs()</text>
</g>
<!-- node_88bb58f9 -->
<g id="node4" class="node">
<title>node_88bb58f9</title>
<path fill="#cccccc" stroke="black" d="M763.25,-241.25C763.25,-241.25 636.25,-241.25 636.25,-241.25 630.25,-241.25 624.25,-235.25 624.25,-229.25 624.25,-229.25 624.25,-217.25 624.25,-217.25 624.25,-211.25 630.25,-205.25 636.25,-205.25 636.25,-205.25 763.25,-205.25 763.25,-205.25 769.25,-205.25 775.25,-211.25 775.25,-217.25 775.25,-217.25 775.25,-229.25 775.25,-229.25 775.25,-235.25 769.25,-241.25 763.25,-241.25"/>
<text text-anchor="middle" x="699.75" y="-218.2" font-family="Times,serif" font-size="14.00">227: _load_configs_dir()</text>
</g>
<!-- node_607acdf0 -->
<g id="node9" class="node">
<title>node_607acdf0</title>
<path fill="#cccccc" stroke="black" d="M938.62,-201.25C938.62,-201.25 825.88,-201.25 825.88,-201.25 819.88,-201.25 813.88,-195.25 813.88,-189.25 813.88,-189.25 813.88,-177.25 813.88,-177.25 813.88,-171.25 819.88,-165.25 825.88,-165.25 825.88,-165.25 938.62,-165.25 938.62,-165.25 944.62,-165.25 950.62,-171.25 950.62,-177.25 950.62,-177.25 950.62,-189.25 950.62,-189.25 950.62,-195.25 944.62,-201.25 938.62,-201.25"/>
<text text-anchor="middle" x="882.25" y="-178.2" font-family="Times,serif" font-size="14.00">282: _load_json_file()</text>
</g>
<!-- node_88bb58f9&#45;&gt;node_607acdf0 -->
<g id="edge2" class="edge">
<title>node_88bb58f9&#45;&gt;node_607acdf0</title>
<path fill="none" stroke="#e69f00" stroke-width="2" d="M775.72,-212.25C825.73,-212.25 882,-212.25 882,-212.25 882,-212.25 882,-211.17 882,-211.17"/>
<polygon fill="#e69f00" stroke="#e69f00" stroke-width="2" points="885.5,-214.48 882,-204.48 878.5,-214.48 885.5,-214.48"/>
</g>
<!-- node_0d63b590 -->
<g id="node10" class="node">
<title>node_0d63b590</title>
<path fill="#cccccc" stroke="black" d="M941.25,-255.25C941.25,-255.25 823.25,-255.25 823.25,-255.25 817.25,-255.25 811.25,-249.25 811.25,-243.25 811.25,-243.25 811.25,-231.25 811.25,-231.25 811.25,-225.25 817.25,-219.25 823.25,-219.25 823.25,-219.25 941.25,-219.25 941.25,-219.25 947.25,-219.25 953.25,-225.25 953.25,-231.25 953.25,-231.25 953.25,-243.25 953.25,-243.25 953.25,-249.25 947.25,-255.25 941.25,-255.25"/>
<text text-anchor="middle" x="882.25" y="-232.2" font-family="Times,serif" font-size="14.00">262: _load_yaml_file()</text>
</g>
<!-- node_88bb58f9&#45;&gt;node_0d63b590 -->
<g id="edge3" class="edge">
<title>node_88bb58f9&#45;&gt;node_0d63b590</title>
<path fill="none" stroke="#e69f00" stroke-width="2" d="M775.56,-230.25C775.56,-230.25 797.74,-230.25 797.74,-230.25"/>
<polygon fill="#e69f00" stroke="#e69f00" stroke-width="2" points="797.74,-233.75 807.74,-230.25 797.74,-226.75 797.74,-233.75"/>
</g>
<!-- node_5e6b3329 -->
<g id="node5" class="node">
<title>node_5e6b3329</title>
<path fill="#cccccc" stroke="black" d="M567.25,-228.25C567.25,-228.25 435,-228.25 435,-228.25 429,-228.25 423,-222.25 423,-216.25 423,-216.25 423,-204.25 423,-204.25 423,-198.25 429,-192.25 435,-192.25 435,-192.25 567.25,-192.25 567.25,-192.25 573.25,-192.25 579.25,-198.25 579.25,-204.25 579.25,-204.25 579.25,-216.25 579.25,-216.25 579.25,-222.25 573.25,-228.25 567.25,-228.25"/>
<text text-anchor="middle" x="501.12" y="-205.2" font-family="Times,serif" font-size="14.00">220: _load_configs_dirs()</text>
</g>
<!-- node_5e6b3329&#45;&gt;node_88bb58f9 -->
<g id="edge4" class="edge">
<title>node_5e6b3329&#45;&gt;node_88bb58f9</title>
<path fill="none" stroke="#e69f00" stroke-width="2" d="M579.63,-216.75C579.63,-216.75 610.74,-216.75 610.74,-216.75"/>
<polygon fill="#e69f00" stroke="#e69f00" stroke-width="2" points="610.74,-220.25 620.74,-216.75 610.74,-213.25 610.74,-220.25"/>
</g>
<!-- node_28df4b52 -->
<g id="node6" class="node">
<title>node_28df4b52</title>
<path fill="#6db33f" stroke="black" d="M763.25,-336.25C763.25,-336.25 636.25,-336.25 636.25,-336.25 630.25,-336.25 624.25,-330.25 624.25,-324.25 624.25,-324.25 624.25,-312.25 624.25,-312.25 624.25,-306.25 630.25,-300.25 636.25,-300.25 636.25,-300.25 763.25,-300.25 763.25,-300.25 769.25,-300.25 775.25,-306.25 775.25,-312.25 775.25,-312.25 775.25,-324.25 775.25,-324.25 775.25,-330.25 769.25,-336.25 763.25,-336.25"/>
<text text-anchor="middle" x="699.75" y="-313.2" font-family="Times,serif" font-size="14.00">184: _load_dotenv_file()</text>
</g>
<!-- node_5718d10e -->
<g id="node7" class="node">
<title>node_5718d10e</title>
<path fill="#cccccc" stroke="black" d="M567.25,-336.25C567.25,-336.25 435,-336.25 435,-336.25 429,-336.25 423,-330.25 423,-324.25 423,-324.25 423,-312.25 423,-312.25 423,-306.25 429,-300.25 435,-300.25 435,-300.25 567.25,-300.25 567.25,-300.25 573.25,-300.25 579.25,-306.25 579.25,-312.25 579.25,-312.25 579.25,-324.25 579.25,-324.25 579.25,-330.25 573.25,-336.25 567.25,-336.25"/>
<text text-anchor="middle" x="501.12" y="-313.2" font-family="Times,serif" font-size="14.00">177: _load_dotenv_files()</text>
</g>
<!-- node_5718d10e&#45;&gt;node_28df4b52 -->
<g id="edge5" class="edge">
<title>node_5718d10e&#45;&gt;node_28df4b52</title>
<path fill="none" stroke="#d55e00" stroke-width="2" d="M579.63,-318.25C579.63,-318.25 610.74,-318.25 610.74,-318.25"/>
<polygon fill="#d55e00" stroke="#d55e00" stroke-width="2" points="610.74,-321.75 620.74,-318.25 610.74,-314.75 610.74,-321.75"/>
</g>
<!-- node_62b092bd -->
<g id="node8" class="node">
<title>node_62b092bd</title>
<path fill="#cccccc" stroke="black" d="M558.25,-282.25C558.25,-282.25 444,-282.25 444,-282.25 438,-282.25 432,-276.25 432,-270.25 432,-270.25 432,-258.25 432,-258.25 432,-252.25 438,-246.25 444,-246.25 444,-246.25 558.25,-246.25 558.25,-246.25 564.25,-246.25 570.25,-252.25 570.25,-258.25 570.25,-258.25 570.25,-270.25 570.25,-270.25 570.25,-276.25 564.25,-282.25 558.25,-282.25"/>
<text text-anchor="middle" x="501.12" y="-259.2" font-family="Times,serif" font-size="14.00">323: _load_extra_dir()</text>
</g>
<!-- node_62b092bd&#45;&gt;node_88bb58f9 -->
<g id="edge6" class="edge">
<title>node_62b092bd&#45;&gt;node_88bb58f9</title>
<path fill="none" stroke="#0072b2" stroke-width="2" d="M501,-246.07C501,-240 501,-234.75 501,-234.75 501,-234.75 610.73,-234.75 610.73,-234.75"/>
<polygon fill="#0072b2" stroke="#0072b2" stroke-width="2" points="610.73,-238.25 620.73,-234.75 610.73,-231.25 610.73,-238.25"/>
</g>
<!-- node_38fb2fb8 -->
<g id="node14" class="node">
<title>node_38fb2fb8</title>
<path fill="#cccccc" stroke="black" d="M1090,-228.25C1090,-228.25 1001.25,-228.25 1001.25,-228.25 995.25,-228.25 989.25,-222.25 989.25,-216.25 989.25,-216.25 989.25,-204.25 989.25,-204.25 989.25,-198.25 995.25,-192.25 1001.25,-192.25 1001.25,-192.25 1090,-192.25 1090,-192.25 1096,-192.25 1102,-198.25 1102,-204.25 1102,-204.25 1102,-216.25 1102,-216.25 1102,-222.25 1096,-228.25 1090,-228.25"/>
<text text-anchor="middle" x="1045.62" y="-205.2" font-family="Times,serif" font-size="14.00">14: deep_merge()</text>
</g>
<!-- node_607acdf0&#45;&gt;node_38fb2fb8 -->
<g id="edge7" class="edge">
<title>node_607acdf0&#45;&gt;node_38fb2fb8</title>
<path fill="none" stroke="#000000" stroke-width="2" d="M951.06,-196.75C951.06,-196.75 975.73,-196.75 975.73,-196.75"/>
<polygon fill="#000000" stroke="#000000" stroke-width="2" points="975.73,-200.25 985.73,-196.75 975.73,-193.25 975.73,-200.25"/>
</g>
<!-- node_0d63b590&#45;&gt;node_38fb2fb8 -->
<g id="edge8" class="edge">
<title>node_0d63b590&#45;&gt;node_38fb2fb8</title>
<path fill="none" stroke="#000000" stroke-width="2" d="M953.43,-222.25C953.43,-222.25 975.88,-222.25 975.88,-222.25"/>
<polygon fill="#000000" stroke="#000000" stroke-width="2" points="975.88,-225.75 985.88,-222.25 975.88,-218.75 975.88,-225.75"/>
</g>
<!-- node_9415ae2b -->
<g id="node11" class="node">
<title>node_9415ae2b</title>
<path fill="#6db33f" stroke="black" d="M556.75,-390.25C556.75,-390.25 445.5,-390.25 445.5,-390.25 439.5,-390.25 433.5,-384.25 433.5,-378.25 433.5,-378.25 433.5,-366.25 433.5,-366.25 433.5,-360.25 439.5,-354.25 445.5,-354.25 445.5,-354.25 556.75,-354.25 556.75,-354.25 562.75,-354.25 568.75,-360.25 568.75,-366.25 568.75,-366.25 568.75,-378.25 568.75,-378.25 568.75,-384.25 562.75,-390.25 556.75,-390.25"/>
<text text-anchor="middle" x="501.12" y="-367.2" font-family="Times,serif" font-size="14.00">360: config_schema()</text>
</g>
<!-- node_a17c4c2e&#45;&gt;node_3b2aa613 -->
<g id="edge9" class="edge">
<title>node_a17c4c2e&#45;&gt;node_3b2aa613</title>
<path fill="none" stroke="#d55e00" stroke-width="2" d="M378.09,-275.5C397.89,-275.5 418,-275.5 418,-275.5 418,-275.5 418,-187.65 418,-187.65"/>
<polygon fill="#d55e00" stroke="#d55e00" stroke-width="2" points="421.5,-187.65 418,-177.65 414.5,-187.65 421.5,-187.65"/>
</g>
<!-- node_a17c4c2e&#45;&gt;node_5e6b3329 -->
<g id="edge10" class="edge">
<title>node_a17c4c2e&#45;&gt;node_5e6b3329</title>
<path fill="none" stroke="#d55e00" stroke-width="2" d="M378.41,-277.75C401.72,-277.75 427,-277.75 427,-277.75 427,-277.75 427,-241.72 427,-241.72"/>
<polygon fill="#d55e00" stroke="#d55e00" stroke-width="2" points="430.5,-241.72 427,-231.72 423.5,-241.72 430.5,-241.72"/>
</g>
<!-- node_a17c4c2e&#45;&gt;node_5718d10e -->
<g id="edge11" class="edge">
<title>node_a17c4c2e&#45;&gt;node_5718d10e</title>
<path fill="none" stroke="#d55e00" stroke-width="2" d="M378.18,-304.75C378.18,-304.75 409.63,-304.75 409.63,-304.75"/>
<polygon fill="#d55e00" stroke="#d55e00" stroke-width="2" points="409.63,-308.25 419.63,-304.75 409.63,-301.25 409.63,-308.25"/>
</g>
<!-- node_a17c4c2e&#45;&gt;node_62b092bd -->
<g id="edge12" class="edge">
<title>node_a17c4c2e&#45;&gt;node_62b092bd</title>
<path fill="none" stroke="#d55e00" stroke-width="2" d="M378.18,-280C378.18,-280 418.63,-280 418.63,-280"/>
<polygon fill="#d55e00" stroke="#d55e00" stroke-width="2" points="418.63,-283.5 428.63,-280 418.63,-276.5 418.63,-283.5"/>
</g>
<!-- node_a17c4c2e&#45;&gt;node_9415ae2b -->
<g id="edge13" class="edge">
<title>node_a17c4c2e&#45;&gt;node_9415ae2b</title>
<path fill="none" stroke="#d55e00" stroke-width="2" d="M353,-309.63C353,-333.53 353,-372.25 353,-372.25 353,-372.25 420.1,-372.25 420.1,-372.25"/>
<polygon fill="#d55e00" stroke="#d55e00" stroke-width="2" points="420.1,-375.75 430.1,-372.25 420.1,-368.75 420.1,-375.75"/>
</g>
<!-- node_1c166c6b -->
<g id="node13" class="node">
<title>node_1c166c6b</title>
<path fill="#6db33f" stroke="black" d="M556,-444.25C556,-444.25 446.25,-444.25 446.25,-444.25 440.25,-444.25 434.25,-438.25 434.25,-432.25 434.25,-432.25 434.25,-420.25 434.25,-420.25 434.25,-414.25 440.25,-408.25 446.25,-408.25 446.25,-408.25 556,-408.25 556,-408.25 562,-408.25 568,-414.25 568,-420.25 568,-420.25 568,-432.25 568,-432.25 568,-438.25 562,-444.25 556,-444.25"/>
<text text-anchor="middle" x="501.12" y="-421.2" font-family="Times,serif" font-size="14.00">546: pre_load_hook()</text>
</g>
<!-- node_a17c4c2e&#45;&gt;node_1c166c6b -->
<g id="edge14" class="edge">
<title>node_a17c4c2e&#45;&gt;node_1c166c6b</title>
<path fill="none" stroke="#d55e00" stroke-width="2" d="M327,-309.74C327,-346.71 327,-426.25 327,-426.25 327,-426.25 420.78,-426.25 420.78,-426.25"/>
<polygon fill="#d55e00" stroke="#d55e00" stroke-width="2" points="420.78,-429.75 430.78,-426.25 420.78,-422.75 420.78,-429.75"/>
</g>
<!-- node_38fb2fb8&#45;&gt;node_38fb2fb8 -->
<g id="edge15" class="edge">
<title>node_38fb2fb8&#45;&gt;node_38fb2fb8</title>
<path fill="none" stroke="#000000" stroke-width="2" d="M989.06,-225.25C978.66,-225.25 971,-225.25 971,-225.25 971,-225.25 971,-241.75 971,-241.75 971,-241.75 1120,-241.75 1120,-241.75 1120,-241.75 1120,-210.25 1120,-210.25 1120,-210.25 1115.4,-210.25 1115.4,-210.25"/>
<polygon fill="#000000" stroke="#000000" stroke-width="2" points="1115.4,-206.75 1105.4,-210.25 1115.4,-213.75 1115.4,-206.75"/>
</g>
</g>
</svg>
