<?xml version="1.0" encoding="UTF-8" standalone="no"?>
<!DOCTYPE svg PUBLIC "-//W3C//DTD SVG 1.1//EN"
 "http://www.w3.org/Graphics/SVG/1.1/DTD/svg11.dtd">
<!-- Generated by graphviz version 12.2.1 (20241206.2353)
 -->
<!-- Title: packages_onion_config Pages: 1 -->
<svg width="619pt" height="188pt"
 viewBox="0.00 0.00 619.12 188.00" xmlns="http://www.w3.org/2000/svg" xmlns:xlink="http://www.w3.org/1999/xlink">
<g id="graph0" class="graph" transform="scale(1 1) rotate(0) translate(4 184)">
<title>packages_onion_config</title>
<polygon fill="white" stroke="none" points="-4,4 -4,-184 615.12,-184 615.12,4 -4,4"/>
<!-- onion_config -->
<g id="node1" class="node">
<title>onion_config</title>
<polygon fill="none" stroke="black" points="364.25,-36 276.25,-36 276.25,0 364.25,0 364.25,-36"/>
<text text-anchor="middle" x="320.25" y="-12.95" font-family="Times,serif" font-size="14.00">onion_config</text>
</g>
<!-- onion_config._base -->
<g id="node3" class="node">
<title>onion_config._base</title>
<polygon fill="none" stroke="black" points="381.5,-108 259,-108 259,-72 381.5,-72 381.5,-108"/>
<text text-anchor="middle" x="320.25" y="-84.95" font-family="Times,serif" font-size="14.00">onion_config._base</text>
</g>
<!-- onion_config&#45;&gt;onion_config._base -->
<g id="edge1" class="edge">
<title>onion_config&#45;&gt;onion_config._base</title>
<path fill="none" stroke="black" d="M320.25,-36.3C320.25,-43.68 320.25,-52.48 320.25,-60.75"/>
<polygon fill="black" stroke="black" points="320.25,-70.68 315.75,-60.68 320.25,-66.9 320.25,-60.68 320.25,-60.68 320.25,-60.68 320.25,-66.9 324.75,-60.68 320.25,-70.68"/>
</g>
<!-- onion_config.__version__ -->
<g id="node2" class="node">
<title>onion_config.__version__</title>
<polygon fill="none" stroke="black" points="158.5,-180 0,-180 0,-144 158.5,-144 158.5,-180"/>
<text text-anchor="middle" x="79.25" y="-156.95" font-family="Times,serif" font-size="14.00">onion_config.__version__</text>
</g>
<!-- onion_config._base&#45;&gt;onion_config.__version__ -->
<g id="edge2" class="edge">
<title>onion_config._base&#45;&gt;onion_config.__version__</title>
<path fill="none" stroke="black" d="M260.06,-108.48C226.57,-118.21 184.72,-130.36 149.72,-140.53"/>
<polygon fill="black" stroke="black" points="140.26,-143.28 148.61,-136.17 143.89,-142.22 149.87,-140.49 149.87,-140.49 149.87,-140.49 143.89,-142.22 151.12,-144.81 140.26,-143.28"/>
</g>
<!-- onion_config._consts -->
<g id="node4" class="node">
<title>onion_config._consts</title>
<polygon fill="none" stroke="black" points="308.38,-180 176.12,-180 176.12,-144 308.38,-144 308.38,-180"/>
<text text-anchor="middle" x="242.25" y="-156.95" font-family="Times,serif" font-size="14.00">onion_config._consts</text>
</g>
<!-- onion_config._base&#45;&gt;onion_config._consts -->
<g id="edge3" class="edge">
<title>onion_config._base&#45;&gt;onion_config._consts</title>
<path fill="none" stroke="black" d="M300.97,-108.3C291.59,-116.72 280.16,-126.98 269.87,-136.21"/>
<polygon fill="black" stroke="black" points="262.49,-142.84 266.92,-132.81 265.3,-140.31 269.93,-136.16 269.93,-136.16 269.93,-136.16 265.3,-140.31 272.93,-139.51 262.49,-142.84"/>
</g>
<!-- onion_config._schemas -->
<g id="node5" class="node">
<title>onion_config._schemas</title>
<polygon fill="none" stroke="black" points="471.75,-180 326.75,-180 326.75,-144 471.75,-144 471.75,-180"/>
<text text-anchor="middle" x="399.25" y="-156.95" font-family="Times,serif" font-size="14.00">onion_config._schemas</text>
</g>
<!-- onion_config._base&#45;&gt;onion_config._schemas -->
<g id="edge4" class="edge">
<title>onion_config._base&#45;&gt;onion_config._schemas</title>
<path fill="none" stroke="black" d="M339.78,-108.3C349.37,-116.8 361.09,-127.19 371.58,-136.49"/>
<polygon fill="black" stroke="black" points="378.76,-142.85 368.29,-139.58 375.93,-140.34 371.28,-136.21 371.28,-136.21 371.28,-136.21 375.93,-140.34 374.26,-132.85 378.76,-142.85"/>
</g>
<!-- onion_config._utils -->
<g id="node6" class="node">
<title>onion_config._utils</title>
<polygon fill="none" stroke="black" points="611.12,-180 489.38,-180 489.38,-144 611.12,-144 611.12,-180"/>
<text text-anchor="middle" x="550.25" y="-156.95" font-family="Times,serif" font-size="14.00">onion_config._utils</text>
</g>
<!-- onion_config._base&#45;&gt;onion_config._utils -->
<g id="edge5" class="edge">
<title>onion_config._base&#45;&gt;onion_config._utils</title>
<path fill="none" stroke="black" d="M377.7,-108.48C409.51,-118.17 449.25,-130.26 482.56,-140.4"/>
<polygon fill="black" stroke="black" points="491.97,-143.26 481.1,-144.66 488.36,-142.16 482.41,-140.35 482.41,-140.35 482.41,-140.35 488.36,-142.16 483.72,-136.05 491.97,-143.26"/>
</g>
</g>
</svg>
